<svg id="Camada_1" data-name="Camada 1" xmlns="http://www.w3.org/2000/svg" viewBox="0 0 1080 1080"><defs><style>.cls-1{fill:#1d8ca6;}.cls-2{fill:#fff;}</style></defs><title>Screva</title><rect class="cls-1" width="1080" height="1080"/><path class="cls-2" d="M519.05,567.45c6.42,24.38,12.7,48.27,19.18,72.88h-51c-2.68-11.58-5.34-23.44-8.2-35.25-2.3-9.47-4.89-18.86-7.22-28.32-.75-3-2.19-4.63-5.5-4a16.56,16.56,0,0,1-3,0c-9.75,0-9.61,0-11.32,9.93-3.3,19.21-6.78,38.39-10.22,57.8H391.59c2.67-15.48,5.31-30.77,8-46.05q6.27-36.18,12.55-72.36,6.24-35.67,12.59-71.31c.71-3.93.81-9.24,3.32-11.24s7.65-.58,11.64-.57c23.63.05,47.26,0,70.88.29,11.27.16,22.48,1.33,33.1,5.7,16,6.61,21.88,17.74,18.65,34.87-2.32,12.35-3.9,24.84-6.4,37.16C549.37,549.1,539.34,558.6,519.05,567.45ZM459.76,534c11.9-.84,23.14-1.13,34.21-2.62a13.53,13.53,0,0,0,11.51-11.09c1.86-9.38,3.36-18.86,4.41-28.37.7-6.31-.93-9-7.11-9.87-10.71-1.5-21.58-1.84-32.52-2.68Z"/><path class="cls-2" d="M976.27,438.94c5.22,67.57,10.38,134.39,15.56,201.51h-52.2c-.37-9.6-1-19.3-1-29,0-4.71-1.38-5.92-5.94-5.82q-19.2.45-38.43,0c-4.16-.09-6.28,1.13-7.74,5.07-3.32,9-7,17.83-10.8,26.62-.62,1.43-2.59,3.22-4,3.24-15.8.22-31.6.14-48,.14,3.79-9.34,7.33-18.36,11.08-27.3q35.7-85,71.38-170.09c1.49-3.58,3.25-4.49,6.88-4.46,19.3.18,38.6.09,57.91.09Zm-42.1,55.22-.94-.3q-15.79,38.24-31.61,76.46c-.27.33-.08,1,.85,1a15.79,15.79,0,0,0,3.92-.18c1.69-.8,4.64-4.54,6.34-4.52,7.88.1,15.75.6,24.06,1C935.91,542.76,935,518.46,934.17,494.16Z"/><path class="cls-2" d="M93.67,578h46.66c-.88,4.33-1.68,8.48-2.55,12.61-1.78,8.37.17,12.56,8.38,13.5a77.62,77.62,0,0,0,21.6-1c5.63-1,8.44-5.6,9.78-11.29,3-12.66.58-18-11.09-23.53-13.45-6.42-27-12.56-40.2-19.55-18.45-9.81-22.49-20.28-20.88-41a189.28,189.28,0,0,1,4.31-28.4c5.16-22.09,19.35-35.26,41.6-39.55,23.24-4.48,46.61-5.34,69.36,2,23.57,7.55,25.08,21.44,23.23,39.6-.76,7.35-2.68,14.58-4.11,22.08H191.28c.93-4.44,1.84-8.72,2.72-13,1.77-8.59-1.13-13.36-9.79-14.29-5.36-.57-10.92.1-16.31.77-5.14.63-8.08,4.21-9.48,9a68.28,68.28,0,0,0-2,8.19c-1,6.25.23,11.78,6.4,14.8,9.78,4.77,19.77,9.11,29.52,13.92,6.82,3.36,13.44,7.14,20.09,10.84,15,8.32,19.43,22.06,18.51,37.91a158.5,158.5,0,0,1-4.15,27.47c-5.75,24-22.42,36.82-45.7,41.47a159.5,159.5,0,0,1-62.3.05,57,57,0,0,1-14-4.82c-13-6.37-17.89-15.64-16.4-29.91,0-.49.12-1,.21-1.48C90.31,595.65,92,586.91,93.67,578Z"/><path class="cls-2" d="M717.49,439.14h52c1.64,49.55,3.28,99,5,149.88a36.72,36.72,0,0,0,2.19-3.72q28.52-71.37,57-142.76c.91-2.28,1.71-3.74,4.77-3.7,15.81.21,31.62.1,48.18.1-2.58,6.17-4.94,12-7.44,17.79q-38.73,89.44-77.39,178.93c-1.72,4-3.79,5.2-8,5.15-21.3-.22-42.6-.1-64.5-.1C725.33,573.57,721.43,506.64,717.49,439.14Z"/><path class="cls-2" d="M398,507.64H347.86c.63-4.26,1.33-8.24,1.77-12.25a85,85,0,0,0,.5-9.44c0-4.29-3.14-6.05-6.58-7.05a39.5,39.5,0,0,0-22.57.18c-9.07,2.7-10.42,10.52-11.81,18.38-4.41,25.06-9,50.09-13.44,75.15-1.1,6.19-2.09,12.41-2.74,18.66s1.82,10.37,7.88,11.3a84.35,84.35,0,0,0,20.58.48c7-.66,11-5.57,12.51-12.38,1-4.35,2.42-8.63,3-13,.45-3.47,1.92-4.31,5.18-4.28,15.12.13,30.24.06,46.66.06-2.43,10.07-4.17,19.94-7.24,29.39-6.6,20.33-20.93,32.52-41.79,36.87-24.15,5.05-48.34,5.68-72.28-1-20.2-5.63-29.35-19.14-26.24-39.83,4-26.8,8.93-53.48,13.58-80.19,2.1-12,4.07-24.15,6.89-36,5.86-24.7,21.87-39.2,46.67-43.49,20.89-3.61,42-3.91,62.73.87,14.95,3.45,27.83,10.47,30.32,27.43,1.13,7.73,0,15.87-.68,23.78C400.32,496.63,399,502,398,507.64Z"/><path class="cls-2" d="M617.05,560.68c-2.18,12.63-4.3,25-6.53,37.94H681c-2.52,14.42-4.92,28.17-7.32,41.93H552.82c11.84-67.12,23.62-134,35.48-201.24H707.68c-2.4,13.69-4.81,27.4-7.29,41.55h-9.14c-18.8,0-37.61.06-56.42-.08-3.29,0-4.58.9-5.09,4.3-1.61,10.78-3.64,21.5-5.62,32.84h62.65c-2.51,14.56-4.9,28.47-7.35,42.76Z"/></svg>