<svg id="Camada_1" data-name="Camada 1" xmlns="http://www.w3.org/2000/svg" xmlns:xlink="http://www.w3.org/1999/xlink" viewBox="0 0 1080 1080"><defs><style>.cls-1{fill:url(#Gradiente_sem_nome_3);}.cls-2{fill:url(#Gradiente_sem_nome_4);}.cls-3{fill:#fff;}.cls-4{isolation:isolate;font-size:223.08px;fill:#005499;font-family:Cloud-Bold, Cloud;font-weight:700;}</style><linearGradient id="Gradiente_sem_nome_3" x1="60.8" y1="522.66" x2="346.06" y2="522.66" gradientTransform="matrix(1, 0, 0, -1, 0, 1080.55)" gradientUnits="userSpaceOnUse"><stop offset="0" stop-color="#3fcdf7"/><stop offset="1" stop-color="#244fe0"/></linearGradient><linearGradient id="Gradiente_sem_nome_4" x1="76.67" y1="588.04" x2="342.91" y2="588.04" xlink:href="#Gradiente_sem_nome_3"/></defs><title>STER</title><path class="cls-1" d="M332.29,520.35A102.72,102.72,0,0,0,269.64,472l-32.74-8.86A42.31,42.31,0,1,0,225.59,505l32.74,8.86a60.08,60.08,0,0,1,42.31,73.69,70.78,70.78,0,0,1-86.81,49.84l-125.73-34a21.64,21.64,0,1,0-11.3,41.78l125.72,34a114.07,114.07,0,0,0,139.9-80.33A102.63,102.63,0,0,0,332.29,520.35Z"/><path class="cls-2" d="M326.91,401.05l-113.12-30.6A108.72,108.72,0,1,0,157,580.34l27.57,7.46A42.31,42.31,0,1,0,195.89,546l-27.57-7.46A65.44,65.44,0,0,1,202.5,412.23l113.12,30.6a21.64,21.64,0,1,0,11.29-41.78Z"/><path class="cls-3" d="M233.62,591.33a17.32,17.32,0,1,1,6.4-23.65A17.34,17.34,0,0,1,233.62,591.33Z"/><path class="cls-3" d="M205.12,489.7a17.32,17.32,0,1,1,6.4-23.65A17.34,17.34,0,0,1,205.12,489.7Z"/><text class="cls-4" transform="translate(389.23 617.89)">STER</text></svg>